<svg height="100" width="100" xmlns="http://www.w3.org/2000/svg"><path d="M24.3 15.2c.5-.2 1.1-.3 1.6-.1.5.2 1 .6 1.2 1.1.2.5.3 1.1.1 1.6-.2.5-.6 1-1.1 1.2-2 1-2.9 3.4-1.9 5.5.5 1 1.3 1.7 2.3 2.1.4.1.9.2 1.3.2.6 0 1.2-.1 1.8-.4.5-.2.7-.8.5-1.3-.2-.5-.8-.7-1.3-.5-.5.2-1.1.3-1.6.1-.5-.2-1-.6-1.2-1.1-.5-1-.1-2.3 1-2.8 1-.5 1.7-1.3 2.1-2.3.4-1 .3-2.1-.2-3.1s-1.3-1.7-2.3-2.1c-1-.4-2.1-.3-3.1.2-.5.2-.7.8-.5 1.3.2.5.8.7 1.3.4zM32.4 11.3c.5-.2 1.1-.3 1.6-.1.5.2 1 .6 1.2 1.1.5 1 .1 2.3-1 2.8-1 .5-1.7 1.3-2.1 2.3-.4 1-.3 2.1.2 3.1s1.3 1.7 2.3 2.1c.4.1.9.2 1.3.2.6 0 1.2-.1 1.8-.4.5-.2.7-.8.5-1.3-.2-.5-.8-.7-1.3-.5-.5.2-1.1.3-1.6.1-.5-.2-1-.6-1.2-1.1-.2-.5-.3-1.1-.1-1.6.2-.5.6-1 1.1-1.2 1-.5 1.7-1.3 2.1-2.3.4-1 .3-2.1-.2-3.1s-1.3-1.7-2.3-2.1c-1-.4-2.1-.3-3.1.2-.5.2-.7.8-.5 1.3.2.5.8.7 1.3.5zM36.6 88.1c.2.4.5.6.9.6.1 0 .3 0 .4-.1L85 65.4c.5-.2.7-.8.5-1.3L62.4 17c-.2-.5-.8-.7-1.3-.5L13.9 39.7c-.5.2-.7.8-.5 1.3l23.2 47.1zM61 18.7L83.3 64 38 86.3 15.7 41 61 18.7z"/><path d="M54.8 34.8c.1.2.3.4.6.5.1 0 .2.1.3.1.2 0 .3 0 .4-.1l7.2-3.5c.5-.2.7-.8.5-1.3l-3.5-7.2c-.1-.2-.3-.4-.6-.5-.2-.1-.5-.1-.8 0l-7.2 3.5c-.5.2-.7.8-.5 1.3l3.6 7.2zm4.1-9.8l2.7 5.4-5.4 2.7-2.7-5.4 5.4-2.7zM44.3 40c.1.2.3.4.6.5.1 0 .2.1.3.1.2 0 .3 0 .4-.1l7.2-3.5c.5-.2.7-.8.5-1.3l-3.5-7.2c-.1-.2-.3-.4-.6-.5-.2-.1-.5-.1-.8 0l-7.2 3.5c-.5.2-.7.8-.5 1.3l3.6 7.2zm4.1-9.8l2.7 5.4-5.4 2.7-2.7-5.5 5.4-2.6zM33.8 45.2c.1.2.3.4.6.5.1 0 .2.1.3.1.2 0 .3 0 .4-.1l7.2-3.5c.5-.2.7-.8.5-1.3l-3.5-7.2c-.1-.2-.3-.4-.6-.5-.2-.1-.5-.1-.8 0l-7.2 3.5c-.5.2-.7.8-.5 1.3l3.6 7.2zm4.1-9.9l2.7 5.4-5.4 2.7-2.7-5.4 5.4-2.7zM32.3 45.9l-3.5-7.2c-.1-.2-.3-.4-.6-.5-.2-.1-.5-.1-.8 0l-7.2 3.5c-.5.2-.7.8-.5 1.3l3.5 7.2c.1.2.3.4.6.5.1 0 .2.1.3.1.2 0 .3 0 .4-.1l7.2-3.5c.6-.2.8-.8.6-1.3zm-7.6 2.6L22 43.1l5.4-2.7 2.7 5.4-5.4 2.7zM56.4 38.2l3.5 7.2c.2.4.5.6.9.6.1 0 .3 0 .4-.1l7.2-3.5c.5-.2.7-.8.5-1.3l-3.5-7.2c-.2-.5-.8-.7-1.3-.5l-7.2 3.5c-.5.2-.7.8-.5 1.3zm7.6-2.7l2.7 5.4-5.4 2.7-2.7-5.4 5.4-2.7zM54.9 38.9c-.2-.5-.8-.7-1.3-.5L46.4 42c-.5.2-.7.8-.5 1.3l3.5 7.2c.2.4.5.6.9.6.1 0 .3 0 .4-.1l7.2-3.5c.5-.2.7-.8.5-1.3l-3.5-7.3zm-4.1 9.8l-2.7-5.4 5.4-2.7 2.7 5.4-5.4 2.7zM43.1 43.6l-7.2 3.5c-.5.2-.7.8-.5 1.3l3.5 7.2c.2.4.5.6.9.6.1 0 .3 0 .4-.1l7.2-3.5c.5-.2.7-.8.5-1.3l-3.5-7.2c-.2-.5-.8-.7-1.3-.5zm-2.8 10.3l-2.7-5.4 5.4-2.7 2.7 5.4-5.4 2.7zM37.5 56.4L34 49.2c-.2-.5-.8-.7-1.3-.5l-7.2 3.5c-.5.2-.7.8-.5 1.3l3.5 7.2c.2.4.5.6.9.6.1 0 .3 0 .4-.1l7.2-3.5c.5-.2.7-.8.5-1.3zM29.8 59l-2.7-5.4 5.4-2.7 2.7 5.4-5.4 2.7zM61.6 48.7l3.5 7.2c.2.4.5.6.9.6.1 0 .3 0 .4-.1l7.2-3.5c.5-.2.7-.8.5-1.3l-3.5-7.2c-.2-.5-.8-.7-1.3-.5L62 47.3c-.5.3-.7.9-.4 1.4zm7.6-2.7l2.7 5.4-5.4 2.7-2.7-5.4 5.4-2.7zM51.1 53.8l3.5 7.2c.2.4.5.6.9.6.1 0 .3 0 .4-.1l7.2-3.5c.5-.2.7-.8.5-1.3l-3.5-7.2c-.2-.5-.8-.7-1.3-.5l-7.2 3.5c-.6.2-.8.8-.5 1.3zm7.6-2.6l2.7 5.4-5.4 2.7-2.7-5.4 5.4-2.7zM44.1 66.2c.2.4.5.6.9.6.1 0 .3 0 .4-.1l7.2-3.5c.2-.1.4-.3.5-.6.1-.3.1-.5 0-.8l-3.5-7.2c-.2-.5-.8-.7-1.3-.5l-7.2 3.5c-.5.2-.7.8-.5 1.3l3.5 7.3zm4.1-9.8l2.7 5.4-5.4 2.7-2.7-5.5 5.4-2.6zM42.6 66.9l-3.5-7.2c-.2-.5-.8-.7-1.3-.5l-7.2 3.5c-.5.2-.7.8-.5 1.3l3.5 7.2c.2.4.5.6.9.6.1 0 .3 0 .4-.1l7.2-3.5c.6-.2.8-.8.5-1.3zM35 69.6l-2.7-5.4 5.4-2.7 2.7 5.4-5.4 2.7zM66.7 59.2l3.5 7.2c.2.4.5.6.9.6.1 0 .3 0 .4-.1l7.2-3.5c.2-.1.4-.3.5-.6.1-.3.1-.5 0-.8l-3.5-7.2c-.2-.5-.8-.7-1.3-.5l-7.2 3.5c-.5.3-.7.9-.5 1.4zm7.7-2.6L77 62l-5.4 2.7-2.6-5.5 5.4-2.6zM65.2 59.9c-.2-.5-.8-.7-1.3-.5L56.7 63c-.5.2-.7.8-.5 1.3l3.5 7.2c.2.4.5.6.9.6.1 0 .3 0 .4-.1l7.2-3.5c.5-.2.7-.8.5-1.3l-3.5-7.3zm-4.1 9.9l-2.7-5.4 5.4-2.7 2.7 5.4-5.4 2.7zM54.8 65.1c-.2-.5-.8-.7-1.3-.5l-7.2 3.5c-.5.2-.7.8-.5 1.3l3.5 7.2c.2.4.5.6.9.6.1 0 .3 0 .4-.1l7.2-3.5c.5-.2.7-.8.5-1.3l-3.5-7.2zm-4.1 9.8L48 69.5l5.4-2.7 2.7 5.4-5.4 2.7zM39.7 82.4c.1 0 .3 0 .4-.1l7.2-3.5c.5-.2.7-.8.5-1.3l-3.5-7.2c-.2-.5-.8-.7-1.3-.5l-7.2 3.5c-.5.2-.7.8-.5 1.3l3.5 7.2c.2.4.6.6.9.6zM42.9 72l2.7 5.4-5.4 2.7-2.7-5.4 5.4-2.7z"/></svg>